<?xml version="1.0" encoding="utf-8"?>
<!-- Generated by IcoMoon.io -->
<svg version="1.1" xmlns="http://www.w3.org/2000/svg" xmlns:xlink="http://www.w3.org/1999/xlink" width="46" height="640" viewBox="0 0 46 640">
<svg id="icon-microwave" width="20" height="20" viewBox="0 0 32 32" >
<path fill="none" stroke-linejoin="round" stroke-linecap="butt" stroke-miterlimit="4" stroke-width="2.24" stroke="#000" d="M2.272 5.712c-0.304 0-0.592 0.112-0.8 0.336-0.224 0.208-0.336 0.496-0.336 0.8v18.288c0 0.304 0.112 0.592 0.336 0.8 0.208 0.224 0.496 0.336 0.8 0.336h27.44c0.304 0 0.592-0.112 0.8-0.336 0.224-0.208 0.336-0.496 0.336-0.8v-18.288c0-0.304-0.112-0.592-0.336-0.8-0.208-0.224-0.496-0.336-0.8-0.336h-27.44z"></path>
<path fill="none" stroke-linejoin="round" stroke-linecap="round" stroke-miterlimit="4" stroke-width="2.24" stroke="#000" d="M6.848 10.272c-0.304 0-0.592 0.128-0.8 0.336-0.224 0.224-0.336 0.512-0.336 0.816v9.136c0 0.304 0.112 0.592 0.336 0.816 0.208 0.208 0.496 0.336 0.8 0.336h12.576c0.304 0 0.592-0.128 0.8-0.336 0.224-0.224 0.336-0.512 0.336-0.816v-9.136c0-0.304-0.112-0.592-0.336-0.816-0.208-0.208-0.496-0.336-0.8-0.336h-12.576zM25.136 11.424h1.136M25.136 16h1.136"></path>
</svg>
<svg id="icon-water" width="20" height="20" viewBox="0 0 32 32" >
<path fill="none" stroke-linejoin="miter" stroke-linecap="butt" stroke-miterlimit="4" stroke-width="2.4" stroke="#000" d="M16 28.992c-5.536 0-9.008-3.472-9.008-8.992 0-5.936 6.448-13.936 8.432-16.256 0.064-0.080 0.16-0.144 0.256-0.192s0.208-0.064 0.32-0.064c0.096 0 0.208 0.016 0.304 0.064s0.192 0.112 0.256 0.192c1.984 2.32 8.432 10.32 8.432 16.256 0 5.52-3.472 8.992-8.992 8.992z"></path>
<path fill="none" stroke-linejoin="round" stroke-linecap="round" stroke-miterlimit="4" stroke-width="2.4" stroke="#000" d="M21.488 20.496c0 1.184-0.464 2.336-1.312 3.184-0.848 0.832-1.984 1.312-3.184 1.312"></path>
</svg>
<svg id="icon-gas" width="20" height="20" viewBox="0 0 32 32" >
<path d="M25.056 13.984c-0.368-0.448-0.8-0.848-1.216-1.232-1.072-0.912-2.288-1.568-3.312-2.512-2.384-2.208-2.912-5.856-1.392-8.64-1.52 0.336-2.848 1.12-3.984 1.984-4.144 3.152-5.776 8.688-3.824 13.456 0.064 0.144 0.128 0.304 0.128 0.496 0 0.336-0.24 0.64-0.56 0.752-0.368 0.16-0.752 0.064-1.056-0.176-0.096-0.080-0.176-0.16-0.224-0.256-1.808-2.16-2.096-5.264-0.88-7.744-2.672 2.064-4.128 5.536-3.92 8.816 0.096 0.752 0.192 1.504 0.464 2.256 0.224 0.912 0.656 1.824 1.136 2.624 1.728 2.608 4.72 4.48 7.936 4.864 3.424 0.4 7.088-0.176 9.712-2.416 2.912-2.512 3.936-6.528 2.432-9.968l-0.208-0.4c-0.336-0.688-1.232-1.904-1.232-1.904zM20.016 23.504c-0.448 0.368-1.184 0.752-1.76 0.912-1.792 0.592-3.584-0.24-4.64-1.248 1.904-0.416 3.040-1.744 3.376-3.088 0.272-1.216-0.24-2.208-0.448-3.376-0.192-1.12-0.16-2.064 0.272-3.12 0.304 0.576 0.624 1.152 1.008 1.616 1.232 1.504 3.168 2.176 3.584 4.224 0.064 0.208 0.096 0.416 0.096 0.656 0.048 1.232-0.528 2.592-1.488 3.424z"></path>
</svg>
<svg id="icon-freezer" width="20" height="20" viewBox="0 0 32 32" >
<path fill="none" stroke-linejoin="round" stroke-linecap="butt" stroke-miterlimit="4" stroke-width="2.0800" stroke="#000" d="M23.392 2.992c1.104 0 2 0.896 2 2v20.384c0 1.104-0.896 2-2 2h-14.8c-1.104 0-2-0.896-2-2v-20.384c0-1.104 0.896-2 2-2h14.8z"></path>
<path fill="none" stroke-linejoin="round" stroke-linecap="round" stroke-miterlimit="4" stroke-width="2.0800" stroke="#000" d="M6.592 13.12h18.8M10.304 10.56v-4.048M10.304 19.44v-4.048M8.416 27.376v0.704c0 0.24 0.096 0.464 0.272 0.64 0.16 0.176 0.4 0.272 0.64 0.272h1.648c0.24 0 0.464-0.096 0.64-0.272 0.176-0.16 0.272-0.4 0.272-0.64v-0.704M20.096 27.376v0.704c0 0.24 0.096 0.48 0.256 0.64 0.176 0.176 0.416 0.272 0.656 0.272h1.648c0.24 0 0.48-0.096 0.656-0.272 0.16-0.16 0.256-0.4 0.256-0.64v-0.704"></path>
</svg>
<svg id="icon-toilet-paper" width="20" height="20" viewBox="0 0 32 32" >
<path d="M24 4c1.936 0 3.264 1.632 4.032 3.312 0.768 1.648 1.232 3.808 1.28 6.144l0.016 0.544v12.656c0 0.176-0.032 0.368-0.112 0.528-0.064 0.16-0.176 0.32-0.304 0.432-0.128 0.128-0.272 0.224-0.448 0.288-0.16 0.064-0.352 0.096-0.528 0.096l-0.16-0.032-3.776-0.624-3.792 0.624c-0.16 0.032-0.32 0.032-0.48 0l-0.16-0.048-3.568-1.184-3.584 1.184c-0.192 0.064-0.384 0.080-0.592 0.064-0.192-0.032-0.384-0.096-0.544-0.192-0.176-0.112-0.304-0.256-0.416-0.416-0.112-0.176-0.176-0.368-0.192-0.56l-0.016-0.16v-3.904c-0.704 0.736-1.584 1.248-2.656 1.248-1.952 0-3.28-1.648-4.048-3.328-0.816-1.776-1.296-4.144-1.296-6.672 0-2.544 0.48-4.912 1.296-6.688 0.736-1.6 1.984-3.168 3.776-3.312h16.272zM24 6.656h-12.304c0.128 0.208 0.24 0.432 0.336 0.656 0.816 1.776 1.296 4.144 1.296 6.688v10.816l2.24-0.752c0.272-0.096 0.576-0.096 0.848 0l3.68 1.232 3.68-0.624c0.144-0.016 0.288-0.016 0.432 0l2.448 0.416v-11.088c0-2.256-0.416-4.224-1.040-5.584-0.688-1.472-1.36-1.76-1.616-1.76zM8 6.656c-0.272 0-0.944 0.288-1.632 1.76-0.624 1.36-1.040 3.328-1.040 5.584 0 2.24 0.416 4.208 1.040 5.568 0.688 1.472 1.36 1.76 1.632 1.76 0.256 0 0.928-0.288 1.616-1.76 0.624-1.36 1.040-3.328 1.040-5.568 0-2.256-0.416-4.224-1.040-5.584-0.688-1.472-1.36-1.76-1.616-1.76zM8 11.328c0.736 0 1.328 1.184 1.328 2.672 0 1.472-0.592 2.656-1.328 2.656s-1.344-1.184-1.344-2.656c0-1.488 0.608-2.672 1.344-2.672z"></path>
</svg>
<svg id="icon-radio" width="20" height="20" viewBox="0 0 32 32" >
<path fill="none" stroke-linejoin="miter" stroke-linecap="butt" stroke-miterlimit="4" stroke-width="2.0800" stroke="#000" d="M4.224 9.552c1.552-1.552 4.080-1.552 9.104-1.552h5.328c5.024 0 7.552 0 9.104 1.552 1.568 1.568 1.568 4.080 1.568 9.104s0 7.552-1.568 9.104c-1.552 1.568-4.080 1.568-9.104 1.568h-5.328c-5.024 0-7.552 0-9.104-1.568-1.568-1.552-1.568-4.080-1.568-9.104s0-7.536 1.568-9.104z"></path>
<path fill="none" stroke-linejoin="miter" stroke-linecap="butt" stroke-miterlimit="4" stroke-width="2.0800" stroke="#000" d="M7.44 12.768c0.496-0.496 1.184-0.768 1.888-0.768h13.328c0.704 0 1.392 0.272 1.888 0.768 0.496 0.512 0.784 1.184 0.784 1.888s-0.288 1.392-0.784 1.888c-0.496 0.496-1.184 0.784-1.888 0.784h-13.328c-0.704 0-1.392-0.288-1.888-0.784s-0.784-1.184-0.784-1.888c0-0.704 0.288-1.376 0.784-1.888zM11.408 24.080c-0.384 0.368-0.88 0.576-1.408 0.576-0.544 0-1.040-0.208-1.424-0.576-0.368-0.384-0.576-0.896-0.576-1.424s0.208-1.040 0.576-1.408c0.384-0.384 0.88-0.592 1.424-0.592 0.528 0 1.024 0.208 1.408 0.592 0.368 0.368 0.592 0.88 0.592 1.408s-0.224 1.040-0.592 1.424z"></path>
<path fill="none" stroke-linejoin="miter" stroke-linecap="round" stroke-miterlimit="4" stroke-width="2.0800" stroke="#000" d="M20 15.328v2M17.328 22.656h6.672M8.656 8l11.344-5.344"></path>
</svg>
<svg id="icon-cd" width="20" height="20" viewBox="0 0 32 32" >
<path fill="none" stroke-linejoin="miter" stroke-linecap="butt" stroke-miterlimit="4" stroke-width="2.9091" stroke="#000" d="M16 30.545c-8.049 0-14.545-6.516-14.545-14.545 0-8.049 6.497-14.545 14.545-14.545 8.029 0 14.545 6.497 14.545 14.545 0 8.029-6.516 14.545-14.545 14.545z"></path>
<path fill="none" stroke-linejoin="miter" stroke-linecap="round" stroke-miterlimit="4" stroke-width="2.9091" stroke="#000" d="M7.098 16c0-4.926 3.976-8.902 8.902-8.902"></path>
<path fill="none" stroke-linejoin="miter" stroke-linecap="butt" stroke-miterlimit="4" stroke-width="2.9091" stroke="#000" d="M16 20.034c-2.25 0-4.053-1.804-4.053-4.034 0-2.25 1.804-4.053 4.053-4.053 2.23 0 4.034 1.804 4.034 4.053 0 2.23-1.804 4.034-4.034 4.034z"></path>
</svg>
<svg id="icon-conditioner" width="20" height="20" viewBox="0 0 32 32" >
<path fill="none" stroke-linejoin="round" stroke-linecap="butt" stroke-miterlimit="4" stroke-width="2.3915" stroke="#000" d="M3.46 1.196c-0.606 0-1.18 0.239-1.61 0.654-0.415 0.43-0.654 1.004-0.654 1.61v11.399c0 0.606 0.239 1.18 0.654 1.61 0.43 0.415 1.004 0.67 1.61 0.67h25.063c0.606 0 1.18-0.255 1.61-0.67 0.43-0.43 0.67-1.004 0.67-1.61v-11.399c0-0.606-0.239-1.18-0.67-1.61-0.43-0.415-1.004-0.654-1.61-0.654h-25.063z"></path>
<path fill="none" stroke-linejoin="round" stroke-linecap="round" stroke-miterlimit="4" stroke-width="2.3915" stroke="#000" d="M25.11 17.139v-4.56c0-0.606-0.255-1.18-0.67-1.61-0.43-0.43-1.004-0.67-1.61-0.67h-13.663c-0.606 0-1.196 0.239-1.626 0.67-0.415 0.43-0.654 1.004-0.654 1.61v4.56M5.739 28.522h0.239c0.845 0 1.642-0.335 2.248-0.941 0.59-0.59 0.941-1.403 0.941-2.248v-2.503M26.242 28.522h-0.223c-0.845 0-1.658-0.335-2.264-0.941-0.59-0.59-0.925-1.403-0.925-2.248v-2.503M15.991 30.802v-7.972"></path>
</svg>
<svg id="icon-camper-1" width="46" height="32" viewBox="0 0 46 32" >
<path d="M2.606 1.794h12.4c0.114 0 0.206-0.046 0.286-0.114l1.189-1.166c0.343-0.331 0.811-0.514 1.303-0.514h18.811c0.88 0 1.691 0.423 2.171 1.131l2.263 3.303c0.32 0.469 0.343 1.063 0.080 1.566-0.274 0.491-0.8 0.8-1.383 0.8h-9.691v0.96h4.96c1.314 0 2.503 0.754 3.017 1.943l2.914 6.651 2.549 0.994c1.36 0.526 2.24 1.794 2.24 3.223v6.16c0 0.914-0.777 1.669-1.714 1.669h-2.96c-0.343 2.034-2.171 3.6-4.354 3.6s-4-1.566-4.354-3.6h-16.194c-0.354 2.034-2.171 3.6-4.354 3.6s-4-1.566-4.354-3.6h-5.92c-0.834 0-1.509-0.674-1.509-1.486v-22.571c0-1.406 1.166-2.549 2.606-2.549zM36.686 30.583c1.634 0 2.971-1.291 2.971-2.891s-1.337-2.891-2.971-2.891c-1.634 0-2.971 1.291-2.971 2.891s1.337 2.891 2.971 2.891zM30.034 26.994h2.297c0.011-0.046 0.023-0.080 0.023-0.114 0.011-0.023 0.011-0.046 0.011-0.069 0.011-0.057 0.034-0.103 0.046-0.16 0-0.011 0-0.023 0-0.034 0.023-0.069 0.046-0.137 0.057-0.194 0.011-0.023 0.023-0.034 0.023-0.057 0.011-0.046 0.034-0.091 0.046-0.137 0.011-0.023 0.023-0.046 0.034-0.069 0.011-0.034 0.023-0.080 0.046-0.114 0.011-0.023 0.023-0.057 0.034-0.080 0.011-0.034 0.023-0.069 0.046-0.103 0.011-0.023 0.023-0.057 0.034-0.080 0.023-0.034 0.034-0.069 0.057-0.103 0.011-0.023 0.023-0.046 0.046-0.069 0.011-0.034 0.034-0.069 0.057-0.103 0.011-0.023 0.023-0.046 0.046-0.069 0.023-0.034 0.034-0.069 0.057-0.103 0.023-0.023 0.034-0.046 0.046-0.069 0.023-0.034 0.057-0.069 0.080-0.103 0.011-0.023 0.023-0.034 0.046-0.057 0.034-0.046 0.069-0.091 0.103-0.137 0.011 0 0.011-0.011 0.023-0.011 0.034-0.057 0.080-0.103 0.126-0.149 0.011-0.023 0.034-0.034 0.046-0.046 0.034-0.034 0.057-0.069 0.091-0.103 0.023-0.011 0.046-0.034 0.057-0.057 0.034-0.023 0.057-0.046 0.091-0.080 0.023-0.011 0.046-0.034 0.057-0.057 0.034-0.023 0.069-0.046 0.091-0.069l0.069-0.057c0.034-0.023 0.057-0.046 0.091-0.069 0.023-0.023 0.046-0.034 0.069-0.046 0.034-0.023 0.069-0.046 0.103-0.069 0.023-0.023 0.046-0.034 0.069-0.046 0.034-0.023 0.069-0.046 0.103-0.069 0.023-0.011 0.046-0.034 0.069-0.046 0.034-0.023 0.080-0.046 0.114-0.057 0.023-0.011 0.034-0.023 0.057-0.034 0.057-0.034 0.114-0.057 0.171-0.091 0 0 0.011 0 0.011 0 0.057-0.034 0.126-0.057 0.183-0.080 0.023-0.011 0.046-0.023 0.069-0.034 0.034-0.011 0.080-0.023 0.126-0.046 0.023-0.011 0.046-0.011 0.080-0.023s0.069-0.034 0.114-0.046c0.023 0 0.057-0.011 0.080-0.023 0.046-0.011 0.080-0.023 0.114-0.034 0.034 0 0.057-0.011 0.091-0.011 0.034-0.011 0.080-0.023 0.114-0.034 0.034 0 0.057-0.011 0.091-0.011 0.034-0.011 0.080-0.023 0.126-0.023 0.023-0.011 0.057-0.011 0.080-0.011 0.046-0.011 0.091-0.011 0.126-0.023 0.034 0 0.057 0 0.091-0.011 0.046 0 0.091 0 0.137-0.011 0.023 0 0.046 0 0.069 0 0.069 0 0.149 0 0.217 0s0.149 0 0.217 0c0.023 0 0.046 0 0.069 0 0.046 0.011 0.103 0.011 0.149 0.011 0.023 0.011 0.057 0.011 0.080 0.011 0.046 0.011 0.080 0.011 0.126 0.023 0.034 0 0.057 0 0.091 0.011 0.034 0 0.080 0.011 0.114 0.023 0.034 0 0.057 0.011 0.091 0.011 0.034 0.011 0.080 0.023 0.114 0.034 0.034 0 0.057 0.011 0.091 0.011 0.034 0.011 0.080 0.023 0.114 0.034 0.023 0.011 0.057 0.023 0.080 0.023 0.046 0.011 0.080 0.034 0.126 0.046 0.023 0.011 0.046 0.011 0.069 0.023 0.046 0.023 0.091 0.034 0.137 0.046 0.011 0.011 0.034 0.023 0.057 0.034 0.057 0.023 0.126 0.046 0.183 0.080 0.011 0 0.011 0 0.011 0 0.057 0.034 0.114 0.057 0.171 0.091 0.023 0.011 0.034 0.023 0.057 0.034 0.046 0.011 0.080 0.034 0.114 0.057 0.023 0.011 0.046 0.034 0.069 0.046 0.034 0.023 0.069 0.046 0.103 0.069 0.023 0.011 0.057 0.023 0.080 0.046s0.057 0.046 0.091 0.069c0.023 0.011 0.046 0.023 0.069 0.046 0.034 0.023 0.057 0.046 0.091 0.069l0.069 0.057c0.034 0.023 0.057 0.046 0.091 0.069 0.023 0.023 0.034 0.046 0.057 0.057 0.034 0.034 0.057 0.057 0.091 0.080 0.023 0.023 0.034 0.046 0.057 0.057 0.034 0.034 0.069 0.069 0.091 0.103 0.023 0.011 0.034 0.023 0.046 0.046 0.046 0.046 0.091 0.091 0.137 0.149 0 0 0.011 0.011 0.011 0.011 0.034 0.046 0.069 0.091 0.114 0.137 0.011 0.023 0.023 0.034 0.034 0.057 0.023 0.034 0.057 0.069 0.080 0.103 0.011 0.023 0.023 0.046 0.046 0.069 0.023 0.034 0.046 0.069 0.069 0.103 0.011 0.023 0.023 0.046 0.034 0.069 0.023 0.034 0.046 0.069 0.069 0.103 0.011 0.023 0.023 0.046 0.034 0.069 0.023 0.034 0.034 0.069 0.057 0.103 0.011 0.023 0.023 0.057 0.034 0.080 0.023 0.034 0.034 0.069 0.057 0.103 0.011 0.023 0.023 0.057 0.023 0.080 0.023 0.034 0.034 0.080 0.057 0.114 0 0.023 0.011 0.046 0.023 0.069 0.011 0.046 0.034 0.091 0.046 0.137 0.011 0.023 0.011 0.034 0.023 0.057 0.023 0.057 0.034 0.126 0.057 0.194 0 0.011 0 0.023 0 0.034 0.023 0.057 0.034 0.103 0.046 0.16 0 0.023 0.011 0.046 0.011 0.069 0.011 0.034 0.011 0.069 0.023 0.114h2.96c0.149 0 0.263-0.126 0.263-0.263v-2.949h-1.12v-1.406h1.12v-1.806c0-0.857-0.514-1.611-1.326-1.92l-2.697-1.051h-10.206v9.394zM30.034 16.194h9.246l-2.594-5.943c-0.286-0.663-0.949-1.086-1.691-1.086h-4.96v7.029zM11.783 30.583c1.634 0 2.971-1.291 2.971-2.891s-1.337-2.891-2.971-2.891c-0.046 0-0.103 0-0.149 0-1.371 0.069-2.491 1.040-2.754 2.309-0.011 0.046-0.023 0.091-0.034 0.149-0.011 0.091-0.023 0.183-0.023 0.286-0.011 0.046-0.011 0.103-0.011 0.149 0 1.6 1.337 2.891 2.971 2.891zM1.44 22.377h1.12v1.406h-1.12v3.131c0 0.046 0.034 0.080 0.069 0.080h5.92c0.011-0.046 0.011-0.080 0.023-0.114 0-0.023 0.011-0.046 0.011-0.069 0.011-0.057 0.023-0.103 0.046-0.16 0-0.011 0-0.023 0-0.034 0.023-0.069 0.046-0.126 0.057-0.194 0.011-0.023 0.023-0.046 0.023-0.057 0.011-0.046 0.034-0.091 0.046-0.137 0.011-0.023 0.023-0.046 0.034-0.069 0.011-0.034 0.023-0.080 0.046-0.114 0.011-0.023 0.023-0.057 0.034-0.080 0.011-0.034 0.023-0.069 0.046-0.103 0.011-0.023 0.023-0.057 0.034-0.080 0.023-0.034 0.034-0.069 0.057-0.103 0.011-0.023 0.023-0.046 0.046-0.069 0.011-0.034 0.034-0.069 0.057-0.103 0.011-0.023 0.023-0.046 0.046-0.069 0.011-0.034 0.034-0.069 0.057-0.103 0.023-0.023 0.034-0.046 0.046-0.069 0.023-0.034 0.057-0.069 0.080-0.103 0.011-0.023 0.023-0.034 0.046-0.057 0.034-0.046 0.069-0.091 0.103-0.126 0-0.011 0.011-0.023 0.011-0.023 0.046-0.057 0.091-0.103 0.137-0.149 0.011-0.023 0.034-0.034 0.046-0.046 0.034-0.034 0.057-0.069 0.091-0.103 0.023-0.011 0.034-0.034 0.057-0.057 0.034-0.023 0.057-0.046 0.091-0.080 0.023-0.011 0.046-0.034 0.057-0.057 0.034-0.023 0.069-0.046 0.091-0.069s0.046-0.034 0.069-0.057c0.034-0.023 0.057-0.046 0.091-0.069 0.023-0.023 0.046-0.034 0.069-0.046 0.034-0.023 0.069-0.046 0.103-0.069 0.023-0.023 0.046-0.034 0.069-0.046 0.034-0.023 0.069-0.046 0.103-0.069 0.023-0.011 0.046-0.034 0.069-0.046 0.034-0.023 0.069-0.046 0.114-0.057 0.023-0.011 0.034-0.023 0.057-0.034 0.057-0.034 0.114-0.057 0.171-0.091 0 0 0.011 0 0.011 0 0.057-0.034 0.126-0.057 0.183-0.080 0.023-0.011 0.046-0.023 0.069-0.034 0.034-0.011 0.080-0.023 0.126-0.046 0.023-0.011 0.046-0.011 0.080-0.023s0.069-0.034 0.114-0.046c0.023 0 0.057-0.011 0.080-0.023 0.046-0.011 0.080-0.023 0.114-0.034 0.034 0 0.057-0.011 0.091-0.011 0.034-0.011 0.080-0.023 0.114-0.034 0.034 0 0.057-0.011 0.091-0.011 0.034-0.011 0.080-0.023 0.114-0.023 0.034-0.011 0.057-0.011 0.091-0.011 0.046-0.011 0.080-0.011 0.126-0.023 0.034 0 0.057 0 0.080-0.011 0.057 0 0.103 0 0.149-0.011 0.023 0 0.046 0 0.069 0 0.069 0 0.149 0 0.217 0s0.149 0 0.217 0c0.023 0 0.046 0 0.069 0 0.046 0.011 0.091 0.011 0.149 0.011 0.023 0.011 0.046 0.011 0.080 0.011 0.046 0.011 0.080 0.011 0.126 0.023 0.034 0 0.057 0 0.091 0.011 0.034 0 0.080 0.011 0.114 0.023 0.034 0 0.057 0.011 0.091 0.011 0.034 0.011 0.080 0.023 0.114 0.034 0.034 0 0.057 0.011 0.091 0.011 0.034 0.011 0.080 0.023 0.114 0.034 0.023 0.011 0.057 0.023 0.080 0.023 0.046 0.011 0.080 0.034 0.126 0.046 0.023 0.011 0.046 0.011 0.069 0.023 0.046 0.023 0.091 0.034 0.137 0.046 0.011 0.011 0.034 0.023 0.057 0.034 0.057 0.023 0.126 0.046 0.183 0.080 0.011 0 0.011 0 0.011 0 0.057 0.034 0.114 0.057 0.171 0.091 0.023 0.011 0.034 0.023 0.057 0.034 0.046 0.011 0.080 0.034 0.114 0.057 0.023 0.011 0.046 0.034 0.069 0.046 0.034 0.023 0.069 0.046 0.103 0.069 0.023 0.011 0.046 0.023 0.080 0.046 0.023 0.023 0.057 0.046 0.091 0.069 0.023 0.011 0.046 0.023 0.069 0.046 0.034 0.023 0.057 0.046 0.091 0.069 0.023 0.023 0.046 0.034 0.069 0.057s0.057 0.046 0.091 0.069c0.011 0.023 0.034 0.046 0.057 0.057 0.034 0.034 0.057 0.057 0.091 0.080 0.023 0.023 0.034 0.046 0.057 0.057 0.034 0.034 0.069 0.069 0.091 0.103 0.023 0.011 0.034 0.023 0.046 0.046 0.046 0.046 0.091 0.091 0.137 0.149 0 0 0.011 0.011 0.011 0.011 0.034 0.046 0.069 0.091 0.103 0.137 0.023 0.023 0.034 0.034 0.046 0.057 0.023 0.034 0.057 0.069 0.080 0.103 0.011 0.023 0.023 0.046 0.046 0.069 0.023 0.034 0.046 0.069 0.057 0.103 0.023 0.023 0.034 0.046 0.046 0.069 0.023 0.034 0.046 0.069 0.057 0.103 0.023 0.023 0.034 0.046 0.046 0.069 0.023 0.034 0.034 0.069 0.057 0.103 0.011 0.023 0.023 0.057 0.034 0.080 0.023 0.034 0.034 0.069 0.046 0.103 0.011 0.023 0.023 0.057 0.034 0.080 0.023 0.034 0.034 0.080 0.057 0.114 0 0.023 0.011 0.046 0.023 0.069 0.011 0.046 0.034 0.091 0.046 0.137 0.011 0.023 0.011 0.034 0.023 0.057 0.011 0.057 0.034 0.126 0.057 0.194 0 0.011 0 0.023 0 0.034 0.023 0.046 0.034 0.103 0.046 0.16 0 0.023 0.011 0.046 0.011 0.069 0.011 0.034 0.011 0.069 0.023 0.114h12.446v-20.903c0-0.389 0.331-0.697 0.72-0.697h10.423c0.023 0 0.069 0 0.103-0.069 0.034-0.057 0.011-0.103 0-0.114l-2.251-3.303c-0.229-0.32-0.583-0.503-0.983-0.503h-18.811c-0.114 0-0.206 0.034-0.286 0.103l-1.189 1.166c-0.343 0.343-0.811 0.526-1.303 0.526h-12.4c-0.651 0-1.166 0.514-1.166 1.143v18.034z"></path>
<path d="M5.531 7.189h8.811c1.017 0 1.851 0.811 1.851 1.806v4.103c0 0.994-0.834 1.806-1.851 1.806h-8.811c-1.017 0-1.851-0.811-1.851-1.806v-4.103c0-0.994 0.834-1.806 1.851-1.806zM5.12 13.097c0 0.217 0.183 0.389 0.411 0.389h8.811c0.229 0 0.411-0.171 0.411-0.389v-4.103c0-0.217-0.183-0.4-0.411-0.4h-8.811c-0.229 0-0.411 0.183-0.411 0.4v4.103z"></path>
</svg>
<svg id="icon-camper-2" width="46" height="32" viewBox="0 0 46 32" >
<path d="M2.606 1.794h12.4c0.114 0 0.206-0.046 0.286-0.114l1.189-1.166c0.343-0.331 0.811-0.514 1.303-0.514h18.811c0.88 0 1.691 0.423 2.171 1.131l2.263 3.303c0.32 0.469 0.343 1.063 0.080 1.566-0.274 0.491-0.8 0.8-1.383 0.8h-9.691v0.96h4.96c1.314 0 2.503 0.754 3.017 1.943l2.914 6.651 2.549 0.994c1.36 0.526 2.24 1.794 2.24 3.223v6.16c0 0.914-0.777 1.669-1.714 1.669h-2.96c-0.343 2.034-2.171 3.6-4.354 3.6s-4-1.566-4.354-3.6h-16.194c-0.354 2.034-2.171 3.6-4.354 3.6s-4-1.566-4.354-3.6h-5.92c-0.834 0-1.509-0.674-1.509-1.486v-22.571c0-1.406 1.166-2.549 2.606-2.549zM36.686 30.583c1.634 0 2.971-1.291 2.971-2.891s-1.337-2.891-2.971-2.891c-1.634 0-2.971 1.291-2.971 2.891s1.337 2.891 2.971 2.891zM30.034 26.994h2.297c0.011-0.046 0.023-0.080 0.023-0.114 0.011-0.023 0.011-0.046 0.011-0.069 0.011-0.057 0.034-0.103 0.046-0.16 0-0.011 0-0.023 0-0.034 0.023-0.069 0.046-0.137 0.057-0.194 0.011-0.023 0.023-0.034 0.023-0.057 0.011-0.046 0.034-0.091 0.046-0.137 0.011-0.023 0.023-0.046 0.034-0.069 0.011-0.034 0.023-0.080 0.046-0.114 0.011-0.023 0.023-0.057 0.034-0.080 0.011-0.034 0.023-0.069 0.046-0.103 0.011-0.023 0.023-0.057 0.034-0.080 0.023-0.034 0.034-0.069 0.057-0.103 0.011-0.023 0.023-0.046 0.046-0.069 0.011-0.034 0.034-0.069 0.057-0.103 0.011-0.023 0.023-0.046 0.046-0.069 0.023-0.034 0.034-0.069 0.057-0.103 0.023-0.023 0.034-0.046 0.046-0.069 0.023-0.034 0.057-0.069 0.080-0.103 0.011-0.023 0.023-0.034 0.046-0.057 0.034-0.046 0.069-0.091 0.103-0.137 0.011 0 0.011-0.011 0.023-0.011 0.034-0.057 0.080-0.103 0.126-0.149 0.011-0.023 0.034-0.034 0.046-0.046 0.034-0.034 0.057-0.069 0.091-0.103 0.023-0.011 0.046-0.034 0.057-0.057 0.034-0.023 0.057-0.046 0.091-0.080 0.023-0.011 0.046-0.034 0.057-0.057 0.034-0.023 0.069-0.046 0.091-0.069l0.069-0.057c0.034-0.023 0.057-0.046 0.091-0.069 0.023-0.023 0.046-0.034 0.069-0.046 0.034-0.023 0.069-0.046 0.103-0.069 0.023-0.023 0.046-0.034 0.069-0.046 0.034-0.023 0.069-0.046 0.103-0.069 0.023-0.011 0.046-0.034 0.069-0.046 0.034-0.023 0.080-0.046 0.114-0.057 0.023-0.011 0.034-0.023 0.057-0.034 0.057-0.034 0.114-0.057 0.171-0.091 0 0 0.011 0 0.011 0 0.057-0.034 0.126-0.057 0.183-0.080 0.023-0.011 0.046-0.023 0.069-0.034 0.034-0.011 0.080-0.023 0.126-0.046 0.023-0.011 0.046-0.011 0.080-0.023s0.069-0.034 0.114-0.046c0.023 0 0.057-0.011 0.080-0.023 0.046-0.011 0.080-0.023 0.114-0.034 0.034 0 0.057-0.011 0.091-0.011 0.034-0.011 0.080-0.023 0.114-0.034 0.034 0 0.057-0.011 0.091-0.011 0.034-0.011 0.080-0.023 0.126-0.023 0.023-0.011 0.057-0.011 0.080-0.011 0.046-0.011 0.091-0.011 0.126-0.023 0.034 0 0.057 0 0.091-0.011 0.046 0 0.091 0 0.137-0.011 0.023 0 0.046 0 0.069 0 0.069 0 0.149 0 0.217 0s0.149 0 0.217 0c0.023 0 0.046 0 0.069 0 0.046 0.011 0.103 0.011 0.149 0.011 0.023 0.011 0.057 0.011 0.080 0.011 0.046 0.011 0.080 0.011 0.126 0.023 0.034 0 0.057 0 0.091 0.011 0.034 0 0.080 0.011 0.114 0.023 0.034 0 0.057 0.011 0.091 0.011 0.034 0.011 0.080 0.023 0.114 0.034 0.034 0 0.057 0.011 0.091 0.011 0.034 0.011 0.080 0.023 0.114 0.034 0.023 0.011 0.057 0.023 0.080 0.023 0.046 0.011 0.080 0.034 0.126 0.046 0.023 0.011 0.046 0.011 0.069 0.023 0.046 0.023 0.091 0.034 0.137 0.046 0.011 0.011 0.034 0.023 0.057 0.034 0.057 0.023 0.126 0.046 0.183 0.080 0.011 0 0.011 0 0.011 0 0.057 0.034 0.114 0.057 0.171 0.091 0.023 0.011 0.034 0.023 0.057 0.034 0.046 0.011 0.080 0.034 0.114 0.057 0.023 0.011 0.046 0.034 0.069 0.046 0.034 0.023 0.069 0.046 0.103 0.069 0.023 0.011 0.057 0.023 0.080 0.046s0.057 0.046 0.091 0.069c0.023 0.011 0.046 0.023 0.069 0.046 0.034 0.023 0.057 0.046 0.091 0.069l0.069 0.057c0.034 0.023 0.057 0.046 0.091 0.069 0.023 0.023 0.034 0.046 0.057 0.057 0.034 0.034 0.057 0.057 0.091 0.080 0.023 0.023 0.034 0.046 0.057 0.057 0.034 0.034 0.069 0.069 0.091 0.103 0.023 0.011 0.034 0.023 0.046 0.046 0.046 0.046 0.091 0.091 0.137 0.149 0 0 0.011 0.011 0.011 0.011 0.034 0.046 0.069 0.091 0.114 0.137 0.011 0.023 0.023 0.034 0.034 0.057 0.023 0.034 0.057 0.069 0.080 0.103 0.011 0.023 0.023 0.046 0.046 0.069 0.023 0.034 0.046 0.069 0.069 0.103 0.011 0.023 0.023 0.046 0.034 0.069 0.023 0.034 0.046 0.069 0.069 0.103 0.011 0.023 0.023 0.046 0.034 0.069 0.023 0.034 0.034 0.069 0.057 0.103 0.011 0.023 0.023 0.057 0.034 0.080 0.023 0.034 0.034 0.069 0.057 0.103 0.011 0.023 0.023 0.057 0.023 0.080 0.023 0.034 0.034 0.080 0.057 0.114 0 0.023 0.011 0.046 0.023 0.069 0.011 0.046 0.034 0.091 0.046 0.137 0.011 0.023 0.011 0.034 0.023 0.057 0.023 0.057 0.034 0.126 0.057 0.194 0 0.011 0 0.023 0 0.034 0.023 0.057 0.034 0.103 0.046 0.16 0 0.023 0.011 0.046 0.011 0.069 0.011 0.034 0.011 0.069 0.023 0.114h2.96c0.149 0 0.263-0.126 0.263-0.263v-2.949h-1.12v-1.406h1.12v-1.806c0-0.857-0.514-1.611-1.326-1.92l-2.697-1.051h-10.206v9.394zM30.034 16.194h9.246l-2.594-5.943c-0.286-0.663-0.949-1.086-1.691-1.086h-4.96v7.029zM11.783 30.583c1.634 0 2.971-1.291 2.971-2.891s-1.337-2.891-2.971-2.891c-0.046 0-0.103 0-0.149 0-1.371 0.069-2.491 1.040-2.754 2.309-0.011 0.046-0.023 0.091-0.034 0.149-0.011 0.091-0.023 0.183-0.023 0.286-0.011 0.046-0.011 0.103-0.011 0.149 0 1.6 1.337 2.891 2.971 2.891zM1.44 22.377h1.12v1.406h-1.12v3.131c0 0.046 0.034 0.080 0.069 0.080h5.92c0.011-0.046 0.011-0.080 0.023-0.114 0-0.023 0.011-0.046 0.011-0.069 0.011-0.057 0.023-0.103 0.046-0.16 0-0.011 0-0.023 0-0.034 0.023-0.069 0.046-0.126 0.057-0.194 0.011-0.023 0.023-0.046 0.023-0.057 0.011-0.046 0.034-0.091 0.046-0.137 0.011-0.023 0.023-0.046 0.034-0.069 0.011-0.034 0.023-0.080 0.046-0.114 0.011-0.023 0.023-0.057 0.034-0.080 0.011-0.034 0.023-0.069 0.046-0.103 0.011-0.023 0.023-0.057 0.034-0.080 0.023-0.034 0.034-0.069 0.057-0.103 0.011-0.023 0.023-0.046 0.046-0.069 0.011-0.034 0.034-0.069 0.057-0.103 0.011-0.023 0.023-0.046 0.046-0.069 0.011-0.034 0.034-0.069 0.057-0.103 0.023-0.023 0.034-0.046 0.046-0.069 0.023-0.034 0.057-0.069 0.080-0.103 0.011-0.023 0.023-0.034 0.046-0.057 0.034-0.046 0.069-0.091 0.103-0.126 0-0.011 0.011-0.023 0.011-0.023 0.046-0.057 0.091-0.103 0.137-0.149 0.011-0.023 0.034-0.034 0.046-0.046 0.034-0.034 0.057-0.069 0.091-0.103 0.023-0.011 0.034-0.034 0.057-0.057 0.034-0.023 0.057-0.046 0.091-0.080 0.023-0.011 0.046-0.034 0.057-0.057 0.034-0.023 0.069-0.046 0.091-0.069s0.046-0.034 0.069-0.057c0.034-0.023 0.057-0.046 0.091-0.069 0.023-0.023 0.046-0.034 0.069-0.046 0.034-0.023 0.069-0.046 0.103-0.069 0.023-0.023 0.046-0.034 0.069-0.046 0.034-0.023 0.069-0.046 0.103-0.069 0.023-0.011 0.046-0.034 0.069-0.046 0.034-0.023 0.069-0.046 0.114-0.057 0.023-0.011 0.034-0.023 0.057-0.034 0.057-0.034 0.114-0.057 0.171-0.091 0 0 0.011 0 0.011 0 0.057-0.034 0.126-0.057 0.183-0.080 0.023-0.011 0.046-0.023 0.069-0.034 0.034-0.011 0.080-0.023 0.126-0.046 0.023-0.011 0.046-0.011 0.080-0.023s0.069-0.034 0.114-0.046c0.023 0 0.057-0.011 0.080-0.023 0.046-0.011 0.080-0.023 0.114-0.034 0.034 0 0.057-0.011 0.091-0.011 0.034-0.011 0.080-0.023 0.114-0.034 0.034 0 0.057-0.011 0.091-0.011 0.034-0.011 0.080-0.023 0.114-0.023 0.034-0.011 0.057-0.011 0.091-0.011 0.046-0.011 0.080-0.011 0.126-0.023 0.034 0 0.057 0 0.080-0.011 0.057 0 0.103 0 0.149-0.011 0.023 0 0.046 0 0.069 0 0.069 0 0.149 0 0.217 0s0.149 0 0.217 0c0.023 0 0.046 0 0.069 0 0.046 0.011 0.091 0.011 0.149 0.011 0.023 0.011 0.046 0.011 0.080 0.011 0.046 0.011 0.080 0.011 0.126 0.023 0.034 0 0.057 0 0.091 0.011 0.034 0 0.080 0.011 0.114 0.023 0.034 0 0.057 0.011 0.091 0.011 0.034 0.011 0.080 0.023 0.114 0.034 0.034 0 0.057 0.011 0.091 0.011 0.034 0.011 0.080 0.023 0.114 0.034 0.023 0.011 0.057 0.023 0.080 0.023 0.046 0.011 0.080 0.034 0.126 0.046 0.023 0.011 0.046 0.011 0.069 0.023 0.046 0.023 0.091 0.034 0.137 0.046 0.011 0.011 0.034 0.023 0.057 0.034 0.057 0.023 0.126 0.046 0.183 0.080 0.011 0 0.011 0 0.011 0 0.057 0.034 0.114 0.057 0.171 0.091 0.023 0.011 0.034 0.023 0.057 0.034 0.046 0.011 0.080 0.034 0.114 0.057 0.023 0.011 0.046 0.034 0.069 0.046 0.034 0.023 0.069 0.046 0.103 0.069 0.023 0.011 0.046 0.023 0.080 0.046 0.023 0.023 0.057 0.046 0.091 0.069 0.023 0.011 0.046 0.023 0.069 0.046 0.034 0.023 0.057 0.046 0.091 0.069 0.023 0.023 0.046 0.034 0.069 0.057s0.057 0.046 0.091 0.069c0.011 0.023 0.034 0.046 0.057 0.057 0.034 0.034 0.057 0.057 0.091 0.080 0.023 0.023 0.034 0.046 0.057 0.057 0.034 0.034 0.069 0.069 0.091 0.103 0.023 0.011 0.034 0.023 0.046 0.046 0.046 0.046 0.091 0.091 0.137 0.149 0 0 0.011 0.011 0.011 0.011 0.034 0.046 0.069 0.091 0.103 0.137 0.023 0.023 0.034 0.034 0.046 0.057 0.023 0.034 0.057 0.069 0.080 0.103 0.011 0.023 0.023 0.046 0.046 0.069 0.023 0.034 0.046 0.069 0.057 0.103 0.023 0.023 0.034 0.046 0.046 0.069 0.023 0.034 0.046 0.069 0.057 0.103 0.023 0.023 0.034 0.046 0.046 0.069 0.023 0.034 0.034 0.069 0.057 0.103 0.011 0.023 0.023 0.057 0.034 0.080 0.023 0.034 0.034 0.069 0.046 0.103 0.011 0.023 0.023 0.057 0.034 0.080 0.023 0.034 0.034 0.080 0.057 0.114 0 0.023 0.011 0.046 0.023 0.069 0.011 0.046 0.034 0.091 0.046 0.137 0.011 0.023 0.011 0.034 0.023 0.057 0.011 0.057 0.034 0.126 0.057 0.194 0 0.011 0 0.023 0 0.034 0.023 0.046 0.034 0.103 0.046 0.16 0 0.023 0.011 0.046 0.011 0.069 0.011 0.034 0.011 0.069 0.023 0.114h12.446v-20.903c0-0.389 0.331-0.697 0.72-0.697h10.423c0.023 0 0.069 0 0.103-0.069 0.034-0.057 0.011-0.103 0-0.114l-2.251-3.303c-0.229-0.32-0.583-0.503-0.983-0.503h-18.811c-0.114 0-0.206 0.034-0.286 0.103l-1.189 1.166c-0.343 0.343-0.811 0.526-1.303 0.526h-12.4c-0.651 0-1.166 0.514-1.166 1.143v18.034z"></path>
<path d="M20.114 7.189h4.549c0.926 0 1.68 0.731 1.68 1.634v15.040c0 0.389-0.331 0.709-0.72 0.709h-6.457c-0.4 0-0.72-0.32-0.72-0.709v-15.040c0-0.903 0.743-1.634 1.669-1.634zM19.886 23.166h5.006v-8.274h-5.006v8.274zM19.886 13.486h5.006v-4.663c0-0.126-0.103-0.229-0.229-0.229h-4.549c-0.126 0-0.229 0.103-0.229 0.229v4.663z"></path>
</svg>
<svg id="icon-camper-3" width="46" height="32" viewBox="0 0 46 32" >
<path d="M2.606 1.794h12.4c0.114 0 0.206-0.046 0.286-0.114l1.189-1.166c0.343-0.331 0.811-0.514 1.303-0.514h18.811c0.88 0 1.691 0.423 2.171 1.131l2.263 3.303c0.32 0.469 0.343 1.063 0.080 1.566-0.274 0.491-0.8 0.8-1.383 0.8h-9.691v0.96h4.96c1.314 0 2.503 0.754 3.017 1.943l2.914 6.651 2.549 0.994c1.36 0.526 2.24 1.794 2.24 3.223v6.16c0 0.914-0.777 1.669-1.714 1.669h-2.96c-0.343 2.034-2.171 3.6-4.354 3.6s-4-1.566-4.354-3.6h-16.194c-0.354 2.034-2.171 3.6-4.354 3.6s-4-1.566-4.354-3.6h-5.92c-0.834 0-1.509-0.674-1.509-1.486v-22.571c0-1.406 1.166-2.549 2.606-2.549zM36.686 30.583c1.634 0 2.971-1.291 2.971-2.891s-1.337-2.891-2.971-2.891c-1.634 0-2.971 1.291-2.971 2.891s1.337 2.891 2.971 2.891zM30.034 26.994h2.297c0.011-0.046 0.023-0.080 0.023-0.114 0.011-0.023 0.011-0.046 0.011-0.069 0.011-0.057 0.034-0.103 0.046-0.16 0-0.011 0-0.023 0-0.034 0.023-0.069 0.046-0.137 0.057-0.194 0.011-0.023 0.023-0.034 0.023-0.057 0.011-0.046 0.034-0.091 0.046-0.137 0.011-0.023 0.023-0.046 0.034-0.069 0.011-0.034 0.023-0.080 0.046-0.114 0.011-0.023 0.023-0.057 0.034-0.080 0.011-0.034 0.023-0.069 0.046-0.103 0.011-0.023 0.023-0.057 0.034-0.080 0.023-0.034 0.034-0.069 0.057-0.103 0.011-0.023 0.023-0.046 0.046-0.069 0.011-0.034 0.034-0.069 0.057-0.103 0.011-0.023 0.023-0.046 0.046-0.069 0.023-0.034 0.034-0.069 0.057-0.103 0.023-0.023 0.034-0.046 0.046-0.069 0.023-0.034 0.057-0.069 0.080-0.103 0.011-0.023 0.023-0.034 0.046-0.057 0.034-0.046 0.069-0.091 0.103-0.137 0.011 0 0.011-0.011 0.023-0.011 0.034-0.057 0.080-0.103 0.126-0.149 0.011-0.023 0.034-0.034 0.046-0.046 0.034-0.034 0.057-0.069 0.091-0.103 0.023-0.011 0.046-0.034 0.057-0.057 0.034-0.023 0.057-0.046 0.091-0.080 0.023-0.011 0.046-0.034 0.057-0.057 0.034-0.023 0.069-0.046 0.091-0.069l0.069-0.057c0.034-0.023 0.057-0.046 0.091-0.069 0.023-0.023 0.046-0.034 0.069-0.046 0.034-0.023 0.069-0.046 0.103-0.069 0.023-0.023 0.046-0.034 0.069-0.046 0.034-0.023 0.069-0.046 0.103-0.069 0.023-0.011 0.046-0.034 0.069-0.046 0.034-0.023 0.080-0.046 0.114-0.057 0.023-0.011 0.034-0.023 0.057-0.034 0.057-0.034 0.114-0.057 0.171-0.091 0 0 0.011 0 0.011 0 0.057-0.034 0.126-0.057 0.183-0.080 0.023-0.011 0.046-0.023 0.069-0.034 0.034-0.011 0.080-0.023 0.126-0.046 0.023-0.011 0.046-0.011 0.080-0.023s0.069-0.034 0.114-0.046c0.023 0 0.057-0.011 0.080-0.023 0.046-0.011 0.080-0.023 0.114-0.034 0.034 0 0.057-0.011 0.091-0.011 0.034-0.011 0.080-0.023 0.114-0.034 0.034 0 0.057-0.011 0.091-0.011 0.034-0.011 0.080-0.023 0.126-0.023 0.023-0.011 0.057-0.011 0.080-0.011 0.046-0.011 0.091-0.011 0.126-0.023 0.034 0 0.057 0 0.091-0.011 0.046 0 0.091 0 0.137-0.011 0.023 0 0.046 0 0.069 0 0.069 0 0.149 0 0.217 0s0.149 0 0.217 0c0.023 0 0.046 0 0.069 0 0.046 0.011 0.103 0.011 0.149 0.011 0.023 0.011 0.057 0.011 0.080 0.011 0.046 0.011 0.080 0.011 0.126 0.023 0.034 0 0.057 0 0.091 0.011 0.034 0 0.080 0.011 0.114 0.023 0.034 0 0.057 0.011 0.091 0.011 0.034 0.011 0.080 0.023 0.114 0.034 0.034 0 0.057 0.011 0.091 0.011 0.034 0.011 0.080 0.023 0.114 0.034 0.023 0.011 0.057 0.023 0.080 0.023 0.046 0.011 0.080 0.034 0.126 0.046 0.023 0.011 0.046 0.011 0.069 0.023 0.046 0.023 0.091 0.034 0.137 0.046 0.011 0.011 0.034 0.023 0.057 0.034 0.057 0.023 0.126 0.046 0.183 0.080 0.011 0 0.011 0 0.011 0 0.057 0.034 0.114 0.057 0.171 0.091 0.023 0.011 0.034 0.023 0.057 0.034 0.046 0.011 0.080 0.034 0.114 0.057 0.023 0.011 0.046 0.034 0.069 0.046 0.034 0.023 0.069 0.046 0.103 0.069 0.023 0.011 0.057 0.023 0.080 0.046s0.057 0.046 0.091 0.069c0.023 0.011 0.046 0.023 0.069 0.046 0.034 0.023 0.057 0.046 0.091 0.069l0.069 0.057c0.034 0.023 0.057 0.046 0.091 0.069 0.023 0.023 0.034 0.046 0.057 0.057 0.034 0.034 0.057 0.057 0.091 0.080 0.023 0.023 0.034 0.046 0.057 0.057 0.034 0.034 0.069 0.069 0.091 0.103 0.023 0.011 0.034 0.023 0.046 0.046 0.046 0.046 0.091 0.091 0.137 0.149 0 0 0.011 0.011 0.011 0.011 0.034 0.046 0.069 0.091 0.114 0.137 0.011 0.023 0.023 0.034 0.034 0.057 0.023 0.034 0.057 0.069 0.080 0.103 0.011 0.023 0.023 0.046 0.046 0.069 0.023 0.034 0.046 0.069 0.069 0.103 0.011 0.023 0.023 0.046 0.034 0.069 0.023 0.034 0.046 0.069 0.069 0.103 0.011 0.023 0.023 0.046 0.034 0.069 0.023 0.034 0.034 0.069 0.057 0.103 0.011 0.023 0.023 0.057 0.034 0.080 0.023 0.034 0.034 0.069 0.057 0.103 0.011 0.023 0.023 0.057 0.023 0.080 0.023 0.034 0.034 0.080 0.057 0.114 0 0.023 0.011 0.046 0.023 0.069 0.011 0.046 0.034 0.091 0.046 0.137 0.011 0.023 0.011 0.034 0.023 0.057 0.023 0.057 0.034 0.126 0.057 0.194 0 0.011 0 0.023 0 0.034 0.023 0.057 0.034 0.103 0.046 0.16 0 0.023 0.011 0.046 0.011 0.069 0.011 0.034 0.011 0.069 0.023 0.114h2.96c0.149 0 0.263-0.126 0.263-0.263v-2.949h-1.12v-1.406h1.12v-1.806c0-0.857-0.514-1.611-1.326-1.92l-2.697-1.051h-10.206v9.394zM30.034 16.194h9.246l-2.594-5.943c-0.286-0.663-0.949-1.086-1.691-1.086h-4.96v7.029zM11.783 30.583c1.634 0 2.971-1.291 2.971-2.891s-1.337-2.891-2.971-2.891c-0.046 0-0.103 0-0.149 0-1.371 0.069-2.491 1.040-2.754 2.309-0.011 0.046-0.023 0.091-0.034 0.149-0.011 0.091-0.023 0.183-0.023 0.286-0.011 0.046-0.011 0.103-0.011 0.149 0 1.6 1.337 2.891 2.971 2.891zM1.44 22.377h1.12v1.406h-1.12v3.131c0 0.046 0.034 0.080 0.069 0.080h5.92c0.011-0.046 0.011-0.080 0.023-0.114 0-0.023 0.011-0.046 0.011-0.069 0.011-0.057 0.023-0.103 0.046-0.16 0-0.011 0-0.023 0-0.034 0.023-0.069 0.046-0.126 0.057-0.194 0.011-0.023 0.023-0.046 0.023-0.057 0.011-0.046 0.034-0.091 0.046-0.137 0.011-0.023 0.023-0.046 0.034-0.069 0.011-0.034 0.023-0.080 0.046-0.114 0.011-0.023 0.023-0.057 0.034-0.080 0.011-0.034 0.023-0.069 0.046-0.103 0.011-0.023 0.023-0.057 0.034-0.080 0.023-0.034 0.034-0.069 0.057-0.103 0.011-0.023 0.023-0.046 0.046-0.069 0.011-0.034 0.034-0.069 0.057-0.103 0.011-0.023 0.023-0.046 0.046-0.069 0.011-0.034 0.034-0.069 0.057-0.103 0.023-0.023 0.034-0.046 0.046-0.069 0.023-0.034 0.057-0.069 0.080-0.103 0.011-0.023 0.023-0.034 0.046-0.057 0.034-0.046 0.069-0.091 0.103-0.126 0-0.011 0.011-0.023 0.011-0.023 0.046-0.057 0.091-0.103 0.137-0.149 0.011-0.023 0.034-0.034 0.046-0.046 0.034-0.034 0.057-0.069 0.091-0.103 0.023-0.011 0.034-0.034 0.057-0.057 0.034-0.023 0.057-0.046 0.091-0.080 0.023-0.011 0.046-0.034 0.057-0.057 0.034-0.023 0.069-0.046 0.091-0.069s0.046-0.034 0.069-0.057c0.034-0.023 0.057-0.046 0.091-0.069 0.023-0.023 0.046-0.034 0.069-0.046 0.034-0.023 0.069-0.046 0.103-0.069 0.023-0.023 0.046-0.034 0.069-0.046 0.034-0.023 0.069-0.046 0.103-0.069 0.023-0.011 0.046-0.034 0.069-0.046 0.034-0.023 0.069-0.046 0.114-0.057 0.023-0.011 0.034-0.023 0.057-0.034 0.057-0.034 0.114-0.057 0.171-0.091 0 0 0.011 0 0.011 0 0.057-0.034 0.126-0.057 0.183-0.080 0.023-0.011 0.046-0.023 0.069-0.034 0.034-0.011 0.080-0.023 0.126-0.046 0.023-0.011 0.046-0.011 0.080-0.023s0.069-0.034 0.114-0.046c0.023 0 0.057-0.011 0.080-0.023 0.046-0.011 0.080-0.023 0.114-0.034 0.034 0 0.057-0.011 0.091-0.011 0.034-0.011 0.080-0.023 0.114-0.034 0.034 0 0.057-0.011 0.091-0.011 0.034-0.011 0.080-0.023 0.114-0.023 0.034-0.011 0.057-0.011 0.091-0.011 0.046-0.011 0.080-0.011 0.126-0.023 0.034 0 0.057 0 0.080-0.011 0.057 0 0.103 0 0.149-0.011 0.023 0 0.046 0 0.069 0 0.069 0 0.149 0 0.217 0s0.149 0 0.217 0c0.023 0 0.046 0 0.069 0 0.046 0.011 0.091 0.011 0.149 0.011 0.023 0.011 0.046 0.011 0.080 0.011 0.046 0.011 0.080 0.011 0.126 0.023 0.034 0 0.057 0 0.091 0.011 0.034 0 0.080 0.011 0.114 0.023 0.034 0 0.057 0.011 0.091 0.011 0.034 0.011 0.080 0.023 0.114 0.034 0.034 0 0.057 0.011 0.091 0.011 0.034 0.011 0.080 0.023 0.114 0.034 0.023 0.011 0.057 0.023 0.080 0.023 0.046 0.011 0.080 0.034 0.126 0.046 0.023 0.011 0.046 0.011 0.069 0.023 0.046 0.023 0.091 0.034 0.137 0.046 0.011 0.011 0.034 0.023 0.057 0.034 0.057 0.023 0.126 0.046 0.183 0.080 0.011 0 0.011 0 0.011 0 0.057 0.034 0.114 0.057 0.171 0.091 0.023 0.011 0.034 0.023 0.057 0.034 0.046 0.011 0.080 0.034 0.114 0.057 0.023 0.011 0.046 0.034 0.069 0.046 0.034 0.023 0.069 0.046 0.103 0.069 0.023 0.011 0.046 0.023 0.080 0.046 0.023 0.023 0.057 0.046 0.091 0.069 0.023 0.011 0.046 0.023 0.069 0.046 0.034 0.023 0.057 0.046 0.091 0.069 0.023 0.023 0.046 0.034 0.069 0.057s0.057 0.046 0.091 0.069c0.011 0.023 0.034 0.046 0.057 0.057 0.034 0.034 0.057 0.057 0.091 0.080 0.023 0.023 0.034 0.046 0.057 0.057 0.034 0.034 0.069 0.069 0.091 0.103 0.023 0.011 0.034 0.023 0.046 0.046 0.046 0.046 0.091 0.091 0.137 0.149 0 0 0.011 0.011 0.011 0.011 0.034 0.046 0.069 0.091 0.103 0.137 0.023 0.023 0.034 0.034 0.046 0.057 0.023 0.034 0.057 0.069 0.080 0.103 0.011 0.023 0.023 0.046 0.046 0.069 0.023 0.034 0.046 0.069 0.057 0.103 0.023 0.023 0.034 0.046 0.046 0.069 0.023 0.034 0.046 0.069 0.057 0.103 0.023 0.023 0.034 0.046 0.046 0.069 0.023 0.034 0.034 0.069 0.057 0.103 0.011 0.023 0.023 0.057 0.034 0.080 0.023 0.034 0.034 0.069 0.046 0.103 0.011 0.023 0.023 0.057 0.034 0.080 0.023 0.034 0.034 0.080 0.057 0.114 0 0.023 0.011 0.046 0.023 0.069 0.011 0.046 0.034 0.091 0.046 0.137 0.011 0.023 0.011 0.034 0.023 0.057 0.011 0.057 0.034 0.126 0.057 0.194 0 0.011 0 0.023 0 0.034 0.023 0.046 0.034 0.103 0.046 0.16 0 0.023 0.011 0.046 0.011 0.069 0.011 0.034 0.011 0.069 0.023 0.114h12.446v-20.903c0-0.389 0.331-0.697 0.72-0.697h10.423c0.023 0 0.069 0 0.103-0.069 0.034-0.057 0.011-0.103 0-0.114l-2.251-3.303c-0.229-0.32-0.583-0.503-0.983-0.503h-18.811c-0.114 0-0.206 0.034-0.286 0.103l-1.189 1.166c-0.343 0.343-0.811 0.526-1.303 0.526h-12.4c-0.651 0-1.166 0.514-1.166 1.143v18.034z"></path>
<path d="M20.114 7.189h4.549c0.926 0 1.68 0.731 1.68 1.634v15.040c0 0.389-0.331 0.709-0.72 0.709h-6.457c-0.4 0-0.72-0.32-0.72-0.709v-15.040c0-0.903 0.743-1.634 1.669-1.634zM19.886 23.166h5.006v-8.274h-5.006v8.274zM19.886 13.486h5.006v-4.663c0-0.126-0.103-0.229-0.229-0.229h-4.549c-0.126 0-0.229 0.103-0.229 0.229v4.663zM5.531 7.189h8.811c1.017 0 1.851 0.811 1.851 1.806v4.103c0 0.994-0.834 1.806-1.851 1.806h-8.811c-1.017 0-1.851-0.811-1.851-1.806v-4.103c0-0.994 0.834-1.806 1.851-1.806zM5.12 13.097c0 0.217 0.183 0.389 0.411 0.389h8.811c0.229 0 0.411-0.171 0.411-0.389v-4.103c0-0.217-0.183-0.4-0.411-0.4h-8.811c-0.229 0-0.411 0.183-0.411 0.4v4.103z"></path>
</svg>
<svg id="icon-shower" width="20" height="20" viewBox="0 0 32 32" >
<path fill="none" stroke-linejoin="round" stroke-linecap="round" stroke-miterlimit="4" stroke-width="2" stroke="#000" d="M5.33 5.33l3.33 3.33M18 8.66c-1.25-1.22-2.92-1.89-4.66-1.88-1.74 0-3.4 0.7-4.63 1.93s-1.93 2.89-1.93 4.63c-0.010 1.74 0.66 3.41 1.88 4.66M20 6.66l-13.34 13.34M18.66 22.66v0.020M13.33 21.33v0.010M17.33 17.33v0.010M21.33 13.33v0.010M14.66 26.66v0.020M22.66 18.66v0.020M26.66 14.66v0.020"></path>
</svg>
<svg id="icon-calendar" width="20" height="20" viewBox="0 0 32 32">
<path fill="none" stroke-linejoin="round" stroke-linecap="butt" stroke-miterlimit="4" stroke-width="2.4" stroke="#000" d="M25.328 5.328c1.472 0 2.672 1.184 2.672 2.672v18.656c0 1.472-1.2 2.672-2.672 2.672h-18.672c-1.472 0-2.656-1.2-2.656-2.672v-18.656c0-1.488 1.184-2.672 2.656-2.672h18.672z"></path>
<path fill="none" stroke-linejoin="round" stroke-linecap="round" stroke-miterlimit="4" stroke-width="2.4" stroke="#000" d="M21.328 2.656v5.328"></path>
<path fill="none" stroke-linejoin="round" stroke-linecap="round" stroke-miterlimit="4" stroke-width="2.4" stroke="#000" d="M10.656 2.656v5.328"></path>
<path fill="none" stroke-linejoin="round" stroke-linecap="round" stroke-miterlimit="4" stroke-width="2.4" stroke="#000" d="M4 13.328h24"></path>
</svg>
<svg id="icon-wind" width="20" height="16" viewBox="0 0 40 32">
<path d="M19.36 0c-1.86 0-3.68 0.64-5.14 1.8-1.44 1.18-2.44 2.8-2.82 4.62l-0.14 0.72c-0.040 0.16-0.040 0.32-0.020 0.48 0.040 0.16 0.1 0.32 0.18 0.46 0.1 0.14 0.22 0.26 0.36 0.36 0.14 0.080 0.3 0.16 0.46 0.18 0.16 0.040 0.34 0.040 0.5 0s0.32-0.1 0.46-0.2c0.14-0.080 0.24-0.2 0.34-0.34 0.080-0.14 0.14-0.3 0.18-0.46l0.14-0.72c0.28-1.34 1.060-2.54 2.18-3.36 1.12-0.8 2.5-1.18 3.88-1.040 1.4 0.14 2.68 0.76 3.62 1.78 0.92 1.020 1.44 2.34 1.46 3.7 0 1.48-0.6 2.88-1.66 3.92s-2.48 1.62-3.98 1.62h-18.12c-0.34 0-0.64 0.14-0.88 0.36-0.24 0.24-0.36 0.56-0.36 0.88s0.12 0.64 0.36 0.86c0.24 0.24 0.54 0.38 0.88 0.38h18.12c2.12-0.060 4.14-0.92 5.62-2.42s2.32-3.5 2.32-5.58c0-2.1-0.84-4.1-2.32-5.6s-3.48-2.36-5.62-2.4zM33.74 11.060c-1.66 0-3.24 0.66-4.42 1.8-1.18 1.16-1.82 2.72-1.82 4.36 0 0.32 0.12 0.64 0.36 0.88 0.24 0.22 0.54 0.36 0.88 0.36s0.64-0.14 0.88-0.36c0.24-0.24 0.38-0.56 0.38-0.88 0-0.72 0.2-1.44 0.62-2.060 0.42-0.6 1-1.080 1.68-1.36 0.7-0.26 1.44-0.34 2.18-0.2 0.72 0.14 1.38 0.5 1.92 1 0.52 0.52 0.88 1.18 1.020 1.9s0.060 1.46-0.22 2.14c-0.28 0.66-0.76 1.24-1.38 1.66-0.62 0.4-1.34 0.62-2.080 0.62h-32.5c-0.34 0-0.64 0.12-0.88 0.36-0.24 0.22-0.36 0.54-0.36 0.86 0 0.34 0.12 0.64 0.36 0.88 0.24 0.22 0.54 0.36 0.88 0.36h24.38c0.82 0 1.62 0.32 2.2 0.9s0.92 1.36 0.92 2.18c0 0.82-0.34 1.6-0.92 2.18-0.6 0.56-1.38 0.9-2.22 0.88-0.74 0-1.46-0.26-2.040-0.72-0.56-0.48-0.94-1.14-1.080-1.86v-0.080c-0.020-0.16-0.080-0.32-0.18-0.46-0.080-0.14-0.18-0.26-0.32-0.36s-0.3-0.16-0.46-0.2c-0.16-0.040-0.32-0.060-0.5-0.020-0.16 0.020-0.32 0.080-0.46 0.18-0.14 0.080-0.26 0.2-0.36 0.32-0.080 0.14-0.16 0.3-0.18 0.46-0.040 0.16-0.040 0.32-0.020 0.48l0.020 0.080c0.22 1.3 0.9 2.48 1.92 3.34 1.020 0.84 2.32 1.32 3.66 1.32 1.5 0 2.92-0.6 3.98-1.64 1.060-1.020 1.66-2.44 1.66-3.9 0-1.14-0.34-2.2-0.94-3.080h3.44c1.66 0 3.24-0.66 4.42-1.8 1.18-1.16 1.84-2.72 1.84-4.36s-0.66-3.2-1.84-4.36c-1.18-1.14-2.76-1.8-4.42-1.8z"></path>
<path d="M25.68 3.2c-0.22-0.28-0.44-0.54-0.7-0.8-1.48-1.5-3.48-2.36-5.62-2.4-0.64 0-1.28 0.060-1.88 0.22-1.2 0.28-2.3 0.82-3.26 1.58-0.62 0.5-1.14 1.080-1.58 1.72-0.52 0.76-0.9 1.58-1.14 2.48-0.020 0.14-0.060 0.28-0.1 0.42l-0.14 0.72c-0.040 0.16-0.040 0.32-0.020 0.48 0.040 0.16 0.1 0.32 0.18 0.46 0.1 0.14 0.22 0.26 0.36 0.36 0.14 0.080 0.3 0.16 0.46 0.18 0.16 0.040 0.34 0.040 0.5 0s0.32-0.1 0.46-0.2c0.14-0.080 0.24-0.2 0.34-0.34 0.080-0.14 0.14-0.3 0.18-0.46l0.14-0.72c0.060-0.32 0.16-0.62 0.28-0.9 0.38-0.98 1.040-1.82 1.9-2.46 0 0 0.020 0 0.020-0.020 0.94-0.68 2.080-1.040 3.24-1.060 0.020 0 0.040 0 0.080 0 0.1 0 0.22 0.020 0.34 0.020 0.060 0 0.14 0 0.2 0.020 1.4 0.14 2.68 0.76 3.62 1.78 0.060 0.080 0.12 0.14 0.18 0.22 0.56 0.66 0.94 1.44 1.14 2.28 0.080 0.38 0.12 0.8 0.14 1.2 0 0.48-0.080 0.96-0.2 1.4-0.14 0.54-0.36 1.060-0.66 1.54-0.22 0.34-0.5 0.68-0.8 0.98-0.28 0.28-0.56 0.52-0.88 0.72-0.48 0.3-1 0.54-1.56 0.7-0.080 0.020-0.14 0.040-0.22 0.060-0.040 0-0.1 0.020-0.14 0.020-0.38 0.080-0.78 0.12-1.18 0.12h-18.12c-0.34 0-0.64 0.14-0.88 0.36-0.24 0.24-0.36 0.56-0.36 0.88s0.12 0.64 0.36 0.86c0.24 0.24 0.54 0.38 0.88 0.38h18.12c0.14-0.020 0.28-0.020 0.42-0.020 0.080-0.020 0.18-0.020 0.26-0.040 0.020 0 0.040 0 0.040 0 0.28-0.040 0.58-0.080 0.84-0.14 1.54-0.34 2.96-1.1 4.060-2.22 0.060-0.060 0.14-0.14 0.2-0.2 0.66-0.74 1.2-1.56 1.56-2.46 0.28-0.76 0.48-1.54 0.54-2.34 0-0.2 0.020-0.4 0.020-0.58 0-0.9-0.16-1.8-0.46-2.62-0.26-0.78-0.66-1.52-1.16-2.18zM34.66 11.14c-0.3-0.060-0.6-0.080-0.92-0.080-1.66 0-3.24 0.66-4.42 1.8-0.16 0.18-0.32 0.34-0.46 0.52-0.080 0.1-0.18 0.22-0.26 0.34-0.72 1.020-1.1 2.24-1.1 3.5 0 0.2 0.040 0.4 0.14 0.58 0.060 0.1 0.12 0.2 0.22 0.3 0.16 0.16 0.38 0.26 0.6 0.32 0.080 0.020 0.18 0.040 0.28 0.040 0.34 0 0.64-0.14 0.88-0.36 0.24-0.24 0.38-0.56 0.38-0.88 0-0.72 0.2-1.44 0.62-2.060 0.14-0.2 0.32-0.4 0.5-0.58 0.34-0.32 0.74-0.58 1.18-0.78 0.54-0.2 1.1-0.3 1.66-0.26 0.18 0 0.34 0.020 0.52 0.060 0.6 0.12 1.16 0.38 1.64 0.76 0.1 0.080 0.18 0.16 0.28 0.24 0.52 0.52 0.88 1.18 1.020 1.9 0.040 0.24 0.060 0.48 0.080 0.72v0 0.020c-0.020 0.48-0.1 0.94-0.3 1.4 0 0.020-0.020 0.040-0.020 0.060-0.12 0.28-0.28 0.54-0.46 0.78-0.26 0.3-0.56 0.58-0.9 0.82-0.56 0.36-1.22 0.58-1.9 0.6-0.060 0.020-0.12 0.020-0.18 0.020h-32.5c-0.34 0-0.64 0.12-0.88 0.36-0.24 0.22-0.36 0.54-0.36 0.86 0 0.34 0.12 0.64 0.36 0.88 0.24 0.22 0.54 0.36 0.88 0.36h24.38c0.68 0 1.32 0.22 1.86 0.6 0.12 0.1 0.24 0.2 0.34 0.3 0.44 0.42 0.72 0.96 0.84 1.54 0.020 0.060 0.040 0.12 0.040 0.18 0.020 0.16 0.040 0.3 0.040 0.46 0 0.72-0.26 1.42-0.74 1.96-0.060 0.080-0.12 0.14-0.18 0.22-0.6 0.56-1.38 0.9-2.22 0.88-0.74 0-1.46-0.26-2.040-0.72-0.56-0.48-0.94-1.14-1.080-1.86v-0.080c-0.020-0.14-0.080-0.28-0.14-0.4 0-0.020-0.020-0.040-0.040-0.060-0.080-0.14-0.18-0.26-0.32-0.36s-0.28-0.16-0.44-0.2c0 0 0 0-0.020 0 0 0 0 0 0 0-0.080-0.020-0.16-0.040-0.24-0.040s-0.16 0-0.26 0.020c-0.12 0.020-0.24 0.060-0.34 0.12-0.040 0-0.080 0.020-0.12 0.060-0.14 0.080-0.26 0.2-0.36 0.32v0c-0.080 0.14-0.16 0.3-0.18 0.46-0.040 0.16-0.040 0.32-0.020 0.48l0.020 0.080c0.22 1.3 0.9 2.48 1.92 3.34 0.1 0.080 0.22 0.16 0.32 0.24 0.96 0.7 2.14 1.080 3.34 1.080 1.22 0 2.38-0.4 3.34-1.080 0.080-0.060 0.14-0.12 0.22-0.18 0.14-0.12 0.3-0.24 0.42-0.38 0.28-0.26 0.5-0.54 0.72-0.84 0.26-0.4 0.48-0.82 0.64-1.28 0.2-0.58 0.3-1.18 0.3-1.78 0-0.28-0.020-0.54-0.060-0.8 0-0.080-0.020-0.18-0.040-0.26-0.14-0.74-0.44-1.42-0.84-2.020h3.44c1.54 0 3-0.56 4.14-1.56 0.1-0.080 0.2-0.16 0.28-0.24 0.62-0.62 1.1-1.34 1.4-2.14 0.28-0.7 0.44-1.44 0.44-2.22 0-1.64-0.66-3.2-1.84-4.36-0.38-0.38-0.82-0.7-1.3-0.96-0.54-0.32-1.12-0.54-1.74-0.68-0.14-0.040-0.3-0.060-0.46-0.080z"></path>
</svg>
<svg id="icon-bed" width="20" height="20" viewBox="0 0 32 32" >
<path fill="none" stroke-linejoin="round" stroke-linecap="round" stroke-miterlimit="4" stroke-width="2.24" stroke="#000" d="M6 14.992v-6.496c0-0.672 0.256-1.296 0.72-1.776 0.48-0.464 1.104-0.72 1.776-0.72h14.992c0.672 0 1.296 0.256 1.776 0.72 0.464 0.48 0.72 1.104 0.736 1.776v6.496h-20zM2.992 26v-7.008c0-1.056 0.432-2.080 1.168-2.832 0.752-0.736 1.776-1.168 2.832-1.168h18c1.056 0 2.080 0.432 2.832 1.168 0.736 0.752 1.168 1.776 1.168 2.832v7.008"></path>
<path fill="none" stroke-linejoin="round" stroke-linecap="round" stroke-miterlimit="4" stroke-width="2.24" stroke="#000" d="M2.992 26v-0.512c0-0.4 0.16-0.768 0.448-1.056 0.272-0.288 0.656-0.432 1.056-0.432h22.992c0.4 0 0.784 0.144 1.056 0.432 0.288 0.288 0.448 0.656 0.448 1.056v0.512M6.992 14.992v-0.992c0-0.544 0.208-1.040 0.592-1.424 0.368-0.368 0.88-0.576 1.408-0.576h5.008c0.528 0 1.024 0.208 1.408 0.576 0.368 0.384 0.576 0.88 0.592 1.424v0.992M16 14c0-0.544 0.208-1.040 0.576-1.424 0.384-0.368 0.88-0.576 1.424-0.576h4.992c0.528 0 1.040 0.208 1.408 0.576 0.384 0.384 0.592 0.88 0.592 1.424v0.992"></path>
</svg>
<svg id="icon-Route" width="20" height="20" viewBox="0 0 32 32" >
<path d="M6.656 4c-1.472 0-2.656 1.184-2.656 2.656s1.184 2.672 2.656 2.672c1.472 0 2.672-1.2 2.672-2.672s-1.2-2.656-2.672-2.656zM1.328 6.656c0-2.944 2.384-5.328 5.328-5.328s5.344 2.384 5.344 5.328c0 2.944-2.4 5.344-5.344 5.344s-5.328-2.4-5.328-5.344z"></path>
<path d="M25.328 22.656c-1.472 0-2.672 1.2-2.672 2.672s1.2 2.672 2.672 2.672c1.472 0 2.672-1.2 2.672-2.672s-1.2-2.672-2.672-2.672zM20 25.328c0-2.944 2.384-5.328 5.328-5.328s5.328 2.384 5.328 5.328c0 2.944-2.384 5.328-5.328 5.328s-5.328-2.384-5.328-5.328z"></path>
<path d="M13.328 6.656c0-0.736 0.592-1.328 1.328-1.328h8.4c4.128 0 5.616 5.408 1.984 7.424l-15.472 8.8c-1.152 0.656-0.784 2.448 0.688 2.448h7.072c0.736 0 1.328 0.592 1.328 1.328s-0.592 1.328-1.328 1.328h-7.072c-4.128 0-5.616-5.408-1.984-7.424l15.472-8.8c1.168-0.656 0.784-2.432-0.688-2.432h-8.4c-0.736 0-1.328-0.608-1.328-1.344z"></path>
</svg>
<svg id="icon-food" width="20" height="20" viewBox="0 0 32 32" >
<path fill="none" stroke-linejoin="round" stroke-linecap="round" stroke-miterlimit="4" stroke-width="2.4" stroke="#000" d="M25.328 20h-6.672c-0.032-4.912 0.24-9.888 6.672-16v24h-1.344v-4M10.656 5.328v22.672M6.656 5.328v4c0 1.056 0.416 2.080 1.168 2.832 0.752 0.736 1.776 1.168 2.832 1.168s2.080-0.432 2.832-1.168c0.752-0.752 1.168-1.776 1.168-2.832v-4"></path>
</svg>
<svg id="icon-petrol" width="20" height="20" viewBox="0 0 32 32" >
<path d="M26.352 9.632l0.016-0.016-4.96-4.96-1.408 1.424 2.8 2.8c-1.248 0.48-2.144 1.68-2.144 3.12 0 0.432 0.096 0.864 0.256 1.264 0.176 0.416 0.416 0.768 0.72 1.088 0.624 0.624 1.472 0.976 2.368 0.976 0.48 0 0.912-0.112 1.328-0.288v9.616c0 0.352-0.144 0.688-0.4 0.944-0.24 0.256-0.576 0.4-0.928 0.4-0.368 0-0.704-0.144-0.944-0.4-0.256-0.256-0.4-0.592-0.4-0.944v-6c0-0.704-0.272-1.376-0.784-1.888-0.496-0.496-1.168-0.768-1.872-0.768h-1.344v-9.344c0-0.704-0.272-1.376-0.784-1.888-0.496-0.496-1.168-0.768-1.872-0.768h-8c-0.72 0-1.392 0.272-1.888 0.768-0.512 0.512-0.784 1.184-0.784 1.888v21.344h13.328v-10h2v6.656c0 0.88 0.352 1.728 0.976 2.352 0.624 0.64 1.472 0.992 2.368 0.992 0.432 0 0.864-0.096 1.264-0.256 0.416-0.176 0.768-0.416 1.088-0.736 0.304-0.304 0.56-0.672 0.72-1.072s0.256-0.832 0.256-1.28v-12.656c0-0.928-0.368-1.776-0.976-2.368zM16 18v7.328h-8v-9.328h8v2zM16 13.328h-8v-6.672h8v6.672zM24 13.328c-0.368 0-0.704-0.144-0.944-0.4-0.256-0.24-0.4-0.576-0.4-0.928 0-0.368 0.144-0.704 0.4-0.944 0.24-0.256 0.576-0.4 0.944-0.4 0.352 0 0.688 0.144 0.928 0.4 0.256 0.24 0.4 0.576 0.4 0.944 0 0.352-0.144 0.688-0.4 0.928-0.24 0.256-0.576 0.4-0.928 0.4z"></path>
</svg>
<svg id="icon-mechanic" width="20" height="20" viewBox="0 0 32 32" >
<path fill="none" stroke-linejoin="round" stroke-linecap="round" stroke-miterlimit="4" stroke-width="2.4" stroke="#000" d="M22.656 28h1.344c0.704 0 1.376-0.288 1.872-0.784 0.512-0.512 0.784-1.184 0.784-1.888s-0.272-1.392-0.784-1.888c-0.496-0.496-1.168-0.784-1.872-0.784h-1.344v5.344zM22.656 14.656h2c0.528 0 1.040-0.208 1.424-0.576 0.368-0.384 0.576-0.896 0.576-1.424s-0.208-1.040-0.576-1.408c-0.384-0.384-0.896-0.592-1.424-0.592h-2v6.672M4.768 8.544c0.512 0.496 1.184 0.784 1.888 0.784s1.392-0.288 1.888-0.784c0.496-0.496 0.784-1.184 0.784-1.888s-0.288-1.376-0.784-1.888c-0.496-0.496-1.184-0.768-1.888-0.768s-1.376 0.272-1.888 0.768c-0.496 0.512-0.768 1.184-0.768 1.888s0.272 1.392 0.768 1.888z"></path>
<path fill="none" stroke-linejoin="round" stroke-linecap="round" stroke-miterlimit="4" stroke-width="2.4" stroke="#000" d="M6.656 9.328v4c0 0.352 0.144 0.688 0.4 0.944 0.24 0.24 0.576 0.384 0.944 0.384h9.328M12 14.656v9.344c0 0.352 0.128 0.688 0.384 0.928 0.256 0.256 0.592 0.4 0.944 0.4h4"></path>
</svg>
<svg id="icon-users" width="20" height="20" viewBox="0 0 32 32" >
<path d="M9.056 24.128h-4.4c-0.256 0-0.4-0.128-0.528-0.272-0.128-0.128-0.272-0.4-0.128-0.656 0.8-2.272 2.8-3.6 5.056-3.6 2.8 0 5.072-2.4 5.072-5.2s-2.272-5.472-5.072-5.472c-2.8 0-5.056 2.4-5.056 5.328 0 1.344 0.528 2.672 1.328 3.6-1.728 0.944-3.072 2.4-3.872 4.4-0.256 0.944-0.128 2.144 0.544 3.072 0.656 0.928 1.6 1.472 2.656 1.472h4.4c0.8 0 1.344-0.544 1.344-1.344s-0.544-1.328-1.344-1.328zM6.656 14.256c0-1.456 1.072-2.528 2.4-2.528 1.344 0 2.4 1.2 2.4 2.528 0 1.472-1.056 2.544-2.4 2.544-1.328 0-2.4-1.2-2.4-2.544z"></path>
<path d="M30.528 21.456c-0.928-2.528-2.8-4.4-4.928-5.456 1.2-1.072 1.856-2.672 1.856-4.544 0-3.456-2.656-6.256-5.856-6.256s-5.872 2.8-5.872 6.256c0 1.744 0.672 3.344 1.872 4.544-2.144 1.056-4 2.928-4.944 5.456-0.656 1.2-0.4 2.544 0.272 3.6 0.672 1.072 1.872 1.6 3.072 1.6h11.056c1.2 0 2.4-0.656 3.072-1.6 0.8-1.056 0.928-2.4 0.4-3.6zM18.256 11.6c0-2 1.472-3.6 3.2-3.6 1.744 0 3.2 1.6 3.2 3.6s-1.456 3.6-3.2 3.6c-1.728 0-3.2-1.744-3.2-3.6zM27.856 23.6c-0.128 0.128-0.4 0.528-0.8 0.528h-11.056c-0.544 0-0.8-0.4-0.8-0.528-0.144-0.144-0.4-0.672-0.144-1.2 1.072-2.8 3.744-4.672 6.544-4.672s5.456 1.872 6.528 4.672c0.128 0.528-0.128 1.056-0.272 1.2z"></path>
</svg>
<svg id="icon-heart-pressed" width="25" height="19" viewBox="0 0 36 32">
<path fill="#e44848" d="M27.787 6.147c-0.693-0.693-1.493-1.227-2.387-1.6-0.893-0.36-1.84-0.56-2.8-0.56-0.973 0-1.92 0.2-2.813 0.56-0.893 0.373-1.693 0.907-2.373 1.6l-1.413 1.413-1.413-1.413c-1.387-1.387-3.253-2.16-5.187-2.16-1.947 0-3.813 0.773-5.187 2.16-1.387 1.373-2.16 3.24-2.16 5.187 0 1.933 0.773 3.8 2.16 5.187l11.787 11.787 11.787-11.787c0.68-0.693 1.213-1.493 1.587-2.387 0.36-0.893 0.56-1.84 0.56-2.8 0-0.973-0.2-1.92-0.56-2.813-0.373-0.893-0.907-1.693-1.587-2.373z"></path>
<path fill="none" stroke="#e44848" stroke-linejoin="round" stroke-linecap="butt" stroke-miterlimit="4" stroke-width="3.0667" d="M25.4 4.547c-0.893-0.36-1.84-0.56-2.8-0.56-0.973 0-1.92 0.2-2.813 0.56-0.893 0.373-1.693 0.907-2.373 1.6l-1.413 1.413-1.413-1.413c-1.387-1.387-3.253-2.16-5.187-2.16-1.947 0-3.813 0.773-5.187 2.16-1.387 1.373-2.16 3.24-2.16 5.187 0 1.933 0.773 3.8 2.16 5.187l11.787 11.787 11.787-11.787c0.68-0.693 1.213-1.493 1.587-2.387 0.36-0.893 0.56-1.84 0.56-2.8 0-0.973-0.2-1.92-0.56-2.813-0.373-0.893-0.907-1.693-1.587-2.373-0.693-0.693-1.493-1.227-2.387-1.6z"></path>
</svg>
<svg id="icon-heart" width="21" height="18" viewBox="0 0 36 32">
<path fill="none" stroke-linejoin="round" stroke-linecap="butt" stroke-miterlimit="4" stroke-width="3.5847" stroke="#000" d="M29.067 2.431c-1.044-0.421-2.151-0.655-3.273-0.655-1.138 0-2.244 0.234-3.289 0.655-1.044 0.436-1.979 1.075-2.774 1.87l-1.652 1.652-1.652-1.652c-1.621-1.605-3.787-2.509-6.063-2.509s-4.457 0.904-6.063 2.509c-1.621 1.605-2.525 3.787-2.525 6.063s0.904 4.457 2.525 6.063l13.778 13.778 13.778-13.778c0.795-0.795 1.418-1.746 1.855-2.79s0.655-2.151 0.655-3.273c0-1.138-0.218-2.244-0.655-3.289s-1.060-1.979-1.855-2.774c-0.795-0.795-1.746-1.434-2.79-1.87z"></path>
</svg>
<svg id="icon_star" width="16" height="16" viewBox="0 0 32 32">
<path  d="M15.1 1.66l-3.78 7.16c-0.14 0.28-0.4 0.46-0.7 0.52l-7.98 1.38c-0.8 0.14-1.1 1.1-0.54 1.68l5.64 5.8c0.22 0.24 0.32 0.54 0.26 0.84l-1.14 8.020c-0.12 0.8 0.7 1.4 1.42 1.040l7.26-3.58c0.28-0.12 0.62-0.12 0.9 0l7.26 3.58c0.72 0.36 1.54-0.24 1.42-1.040l-1.14-8.020c-0.060-0.3 0.040-0.6 0.26-0.84l5.64-5.8c0.56-0.58 0.26-1.54-0.54-1.68l-7.98-1.38c-0.3-0.060-0.56-0.24-0.7-0.52l-3.78-7.16c-0.38-0.7-1.4-0.7-1.78 0z"></path>
<path  d="M11.32 8.82l3.78-7.16c0.38-0.7 1.4-0.7 1.78 0l3.78 7.16c0.14 0.28 0.4 0.46 0.7 0.52l7.98 1.38c0.8 0.14 1.1 1.1 0.54 1.68l-5.64 5.8c-0.22 0.24-0.32 0.54-0.26 0.84l1.14 8.020c0.12 0.8-0.7 1.4-1.42 1.040l-7.26-3.58c-0.28-0.12-0.62-0.12-0.9 0l-7.26 3.58c-0.72 0.36-1.54-0.24-1.42-1.040l1.14-8.020c0.060-0.3-0.040-0.6-0.26-0.84l-5.64-5.8c-0.56-0.58-0.26-1.54 0.54-1.68l7.98-1.38c0.3-0.060 0.56-0.24 0.7-0.52zM13.46 9.94c-0.5 0.94-1.4 1.58-2.44 1.76l-5.36 0.94 3.8 3.9c0.74 0.76 1.080 1.8 0.92 2.84l-0.78 5.4 4.88-2.4c0.96-0.48 2.060-0.48 3.020 0l4.88 2.4-0.78-5.4c-0.16-1.040 0.18-2.080 0.92-2.84l3.8-3.9-5.36-0.94c-1.040-0.18-1.94-0.82-2.44-1.76l-2.52-4.8-2.54 4.8z"></path>
</svg>
<svg id="icon-map-pin" width="16" height="16" viewBox="0 0 32 32">
<path fill="none" stroke-linejoin="round" stroke-linecap="butt" stroke-miterlimit="4" stroke-width="2.6" stroke="#000" d="M16 30.66c0 0-12-8-12-17.34 0-3.18 1.26-6.24 3.5-8.48 2.26-2.26 5.3-3.52 8.5-3.52 3.18 0 6.22 1.26 8.48 3.52 2.24 2.24 3.52 5.3 3.52 8.48 0 9.34-12 17.34-12 17.34z"></path>
<path fill="none" stroke-linejoin="round" stroke-linecap="butt" stroke-miterlimit="4" stroke-width="2.6" stroke="#000" d="M16 17.32c-2.22 0-4-1.78-4-4 0-2.2 1.78-4 4-4 2.2 0 4 1.8 4 4 0 2.22-1.8 4-4 4z"></path>
</svg>
<svg id="icon-close-btn" width="32" height="32" viewBox="0 0 32 32">
<path fill="none" stroke-linejoin="round" stroke-linecap="round" stroke-miterlimit="4" stroke-width="3" stroke="#000" d="M24 8l-16 16"></path>
<path fill="none" stroke-linejoin="round" stroke-linecap="round" stroke-miterlimit="4" stroke-width="3" stroke="#000" d="M8 8l16 16"></path>
</svg>
</svg>
